Patient4_TMGait_0pt4_03_left_05_EMG.mot
version=1
nRows=33
nColumns=33
inDegrees=no
endheader
time	1LAddLong	2LGlutMax	3LGlutMed	4LIliopsoas	5LSemiMemb	6LBicFemLong	7LRecFem	8LVastMed	9LVastLat	10LGasMed	11LTibAnt	12lTibPost	13LPeroneusLong	14LSol	15LExtDigLong	16LFlexDigLong	17RAddLong	18RGlutMax	19RGlutMed	20RIliopsoas	21RSemiMemb	22RBicFemLong	23RRecFem	24RVastMed	25RVastLat	26RGasMed	27RTibAnt	28RTibPost	29RPeroneusLong	30RSol	31RExtDigLong	32RFlexDigLong
7.495	0.008545	-0.080414	0.020905	0.001526	-0.021515	-0.036163	-0.012207	0.036621	0.059662	-0.016022	0.011292	0.006866	0.023804	-0.022278	0.040741	-0.002594	-0.009766	-0.29465	-0.10864	0.10208	0.017853	-0.015564	0.072937	0.080566	0.034332	-0.007629	0.88852	-0.000763	-0.014801	-0.43259	-0.002747	-0.002136
7.496	0.014343	-0.031891	-0.005646	-0.000763	-0.0177	-0.04303	-0.004578	0.037842	0.065765	-0.030975	0.021362	-0.002594	0.014496	-0.016022	0.038605	0.005798	-0.006256	-0.28778	-0.24246	0.011749	0.009613	-0.006409	0.10971	0.019379	0.072784	-0.009918	0.25726	0.009155	-0.099182	-0.32638	-0.002136	-0.006714
7.497	0.006104	0.002441	0.034943	-0.007019	-0.025482	-0.026855	0.010071	0.015411	0.059509	-0.029602	0.014343	0.00412	0.006714	-0.044556	0.03479	0.000458	-0.002594	-0.27435	-0.26032	-0.002289	-0.001984	-0.013733	0.08606	0.00946	-0.025635	0.000458	-0.084076	-0.00061	-0.070648	-0.34058	-0.001221	-0.009308
7.498	0.007782	0.014038	0.009613	0.007477	-0.026855	-0.0354	-0.009003	0.001678	0.059967	-0.035095	0.011292	0.006714	0.013885	-0.057526	0.039063	0.001984	0.004425	-0.21027	-0.079803	-0.003662	0.009308	0.019836	0.12039	0.001984	-0.049591	0.010529	-0.87982	-0.000458	0.13718	-0.31769	-0.004578	-0.01236
7.499	0.016327	0.024719	0.002594	0.009155	-0.051422	-0.033112	-0.00412	0.006866	0.056	-0.023346	0.016632	0.000763	0.015411	-0.010376	0.029755	0.003357	-0.001831	-0.2301	-0.16922	0.029297	-0.068817	0.018311	0.24368	-0.056	0.006714	0.021362	-0.97656	0.001831	0.28015	-0.28046	-0.00351	-0.006561
7.5	0.017242	0.027161	-0.049286	0.006561	-0.051422	-0.05661	0.015259	0.005341	0.063324	-0.023651	0.016479	0.001678	0.026855	-0.011444	0.008698	-0.007172	-0.009155	-0.25543	0.08255	0.010376	-0.000305	0.028076	0.28442	-0.16083	-0.066223	0.009613	-0.4335	0.000763	0.048065	-0.16754	-0.000153	-0.007019
7.501	0.010223	0.049744	-0.093231	-0.002594	-0.043182	-0.082092	-0.001526	-0.00351	0.0737	-0.020752	0.012817	-0.001526	0.020447	-0.021667	0.02121	-0.007019	-0.005341	-0.22934	0.3447	-0.016632	0.069427	-0.031586	0.023499	-0.16419	-0.094452	0.003204	-0.046539	0.001984	0.052338	-0.074768	-0.001831	0.009918
7.502	0.008392	0.033112	-0.20538	0.007629	0.008698	-0.06546	0.005951	0.007324	0.067444	-0.025635	0.014801	0.005341	0.008087	-0.10559	0.018616	-0.012512	-0.002899	-0.19287	0.21484	0.007629	0.02243	-0.049744	-0.2272	-0.089874	-0.046692	-0.000763	0.24078	0.002136	0.089264	-0.035248	-0.00412	-0.00946
7.503	0.00473	0.057373	-0.35767	0.012512	0.026093	-0.030823	0.009766	0.002136	0.076752	-0.027313	0.010223	-0.000458	0.009003	-0.095825	0.009155	-0.011597	-0.019836	-0.2153	-0.10452	0.03006	-0.01709	-0.04364	-0.26993	0.04425	0.027313	-0.006714	0.33524	-0.000305	0.06424	0.016022	0.005035	-0.014038
7.504	0.010376	0.098114	-0.2771	0.00885	0.013428	-0.017853	0.025177	0.006409	0.066833	-0.032501	0.013123	-0.004425	0.019379	-0.064392	0.015106	-0.014496	-0.012817	-0.14755	-0.068512	0.042877	0.000305	0.000458	-0.13321	0.010681	0.007935	-0.011292	0.37582	-0.001526	0.003967	0.079651	-0.00351	-0.009918
7.505	0.001221	0.095673	-0.13825	0.004578	0.005188	-0.007019	0.013123	0.007935	0.077515	-0.030975	0.01297	-0.001068	0.013733	-0.070648	0.013885	-0.004272	-0.013275	-0.10727	-0.086823	-0.003967	0.022736	0.046539	-0.16693	0.053711	0.11917	-0.014038	-0.38193	-0.007019	0.00061	0.20874	-0.001831	-0.011444
7.506	-0.00885	0.071869	0.15823	0.003967	-0.010834	0.015717	0.022583	0.004425	0.068817	-0.029602	0.001221	0.000153	0.023956	-0.080414	0.015869	-0.004425	0.009155	-0.15701	-0.42465	-0.019073	-0.010681	0.025177	0.029602	0.017853	0.074768	-0.005493	-0.94772	-0.005493	0.059052	0.09552	-0.003357	-0.008545
7.507	-0.000916	0.022888	0.26794	-0.006256	-0.012207	0.025482	0.024414	0.00351	0.074768	-0.02533	0.018921	-0.003204	0.023956	-0.077972	0.016632	-0.014496	0.034637	-0.09903	-0.6929	0.026703	0.007629	0.015411	0.053406	-0.082703	0.022278	-0.005493	-0.76172	-0.000763	0.07843	-0.035553	-0.00351	-0.005341
7.508	-0.014648	0.002289	0.071259	0.015717	-0.055542	0.038757	0.001526	0.00351	0.075073	-0.039978	0.012512	-0.001678	0.028381	-0.073242	0.025787	-0.006866	0.050659	-0.089264	-0.50781	-0.019989	0.13596	-0.062408	-0.077362	-0.12192	0.011139	0.000916	-0.21179	0.000305	0.086975	-0.080414	-0.000305	-0.001373
7.509	-0.008545	0.014496	0.084686	-0.002747	-0.089569	0.029297	0.008087	0.007172	0.076599	-0.02533	-0.019989	-0.000458	0.003204	-0.040131	0.024261	-0.00824	0.049896	-0.002594	-0.29511	-0.11704	0.21378	-0.11963	-0.14832	-0.034637	0.007324	-0.004883	0.10986	0.004425	-0.018311	-0.08316	-0.001831	0.002136
7.51	0.006866	0.013428	0.012512	0.000305	-0.074921	-0.000305	-0.001221	0.005646	0.078125	-0.014954	-0.024109	0.002594	0.01709	-0.041809	0.017242	-0.013123	0.039215	0.086517	0.2533	-0.043488	0.030823	-0.055695	-0.12405	0.07019	0.007019	-0.01358	0.19318	0.001068	-0.19333	-0.045624	-0.00412	-0.002594
7.511	0.008087	-0.014191	-0.009613	-0.001373	-0.029755	-0.061951	0.005646	-0.001068	0.078735	-0.023041	-0.10239	-0.002289	0.018921	-0.054626	-0.014954	-0.018158	0.001678	0.015869	0.079956	0.081024	-0.17044	0.004425	-0.12466	0.11749	0.071716	-0.006104	0.26642	-0.002747	-0.18921	0.03418	-0.005188	-0.00824
7.512	0.014191	0.016327	-0.010071	0.005493	0.080872	-0.089111	0.014343	0.001221	0.064545	-0.016785	-0.057831	-0.005341	0.022125	-0.062866	-0.019073	-0.001221	-0.06546	0.021667	-0.062256	0.094757	-0.15564	0.046234	0.014648	0.14603	0.048523	0.000305	0.064087	-0.00061	-0.024567	0.053101	-0.007172	-0.006714
7.513	0.024261	0.002899	-0.03418	0.005493	0.059204	-0.045929	0.013275	0.007324	0.055237	-0.018158	0.097961	-0.000916	0.009613	-0.06897	-0.007172	-0.016022	-0.055237	0.044098	-0.13702	0.12009	-0.090942	0.04425	0.040588	0.039673	-0.020599	-0.011597	0.015259	0.000305	0.046844	0.19608	-0.005188	-0.008545
7.514	0.012665	-0.016937	-0.036011	0.010071	0.023499	-0.007477	0.010986	0.006409	0.060425	-0.014496	0.10849	-0.003357	-0.010834	-0.077362	-0.011444	-0.001984	-0.038757	0.060425	-0.26825	0.049744	-0.060425	0.11475	0.044861	0.046539	-0.033722	-0.016174	0.0737	-0.001068	0.003357	0.30823	-0.002747	-0.005951
7.515	0.010681	-0.000916	0.016632	-0.006409	0.01709	-0.029907	0.019073	0.015869	0.049591	-0.022125	0.029602	0.002289	0.014343	-0.052948	-0.015564	-0.009918	-0.005341	0.066833	-0.061035	-0.040283	-0.036011	0.047302	0.089111	0.072479	-0.022583	-0.007935	0.06012	0.001221	0.018158	0.045471	-0.002899	-0.008392
7.516	0.009766	-0.028839	0.006866	0.012054	0.009918	-0.01358	-0.007629	0.005646	0.039215	-0.031586	0.014954	-0.001678	0.010681	-0.023041	-0.012207	-0.005188	-0.012817	0.078888	-0.36209	-0.12741	-0.1062	0.028992	0.050507	0.082092	-0.04837	0.003662	0.036926	0.000916	-0.086365	-0.17975	-0.005341	-0.000916
7.517	0.009003	-0.018311	-0.009766	0.012512	0.012512	-0.00473	0.002594	0.005646	0.042267	-0.031433	0.003204	-0.009003	0.008087	-0.010986	0.033722	-0.015106	0.00061	0.10605	-0.20126	-0.098114	-0.08667	0.018158	0.10025	0.020142	-0.069885	0.006256	0.076752	0.001526	-0.19089	-0.39108	-0.001373	-0.006409
7.518	-0.000458	-0.032501	0.005188	0.020905	0.014648	0.013428	0.005798	0.005188	0.035553	-0.054016	0.004578	-0.002747	-0.018311	0.029449	0.03418	-0.007782	-0.009003	0.1796	0.15091	-0.04303	-0.041809	0.024414	0.097504	0.030975	-0.082245	0.015869	0.14877	0.004272	-0.29068	-0.39673	-0.003052	-0.012207
7.519	0.003204	-0.054779	-0.057678	0.006256	0.000305	0.001221	-0.00061	0.006409	0.046387	-0.090942	0.001831	0.003204	-0.009308	0.022278	-0.015869	-0.010834	-0.014343	0.11841	0.2739	0.015411	0.068817	0.018768	0.08255	0.013428	-0.10132	0.005951	0.21851	-0.000305	-0.30319	-0.18234	-0.001526	-0.013428
7.52	-0.007629	-0.054169	-0.093536	0.004578	0.000763	0.017395	-0.00061	0.006866	0.035706	-0.079956	0.050354	0.001068	0.009003	-0.044098	-0.071564	-0.006104	-0.001678	0.042572	0.61615	0.043182	0.008392	0.017853	0.04837	-0.086212	0.021973	0.008087	0.25421	-0.000153	-0.025482	0.12894	-0.00061	0
7.521	-0.003662	-0.04837	-0.19211	-0.000305	-0.050964	-0.011597	-0.003204	0.006256	0.045013	-0.043945	0.054321	0.009613	-0.020905	-0.081177	0.19974	0.016632	0.005951	0.084839	0.10849	0.095673	-0.073395	0.039978	0.18967	-0.1268	0.028229	0.000305	0.27985	-0.003204	0.17319	0.33279	-0.000916	-0.007477
7.522	0.001678	-0.052795	-0.29953	0.002136	-0.03952	-0.011139	-0.002899	0.002441	0.054169	-0.002747	0.045776	-0.002747	-0.008392	-0.0737	-0.025177	-0.007477	0.014801	0.09613	-0.42496	0.091248	-0.070038	0.036163	0.28061	-0.15656	0.00473	-0.021362	0.29404	-0.004272	0.06485	0.31082	0	-0.007477
7.523	0.005798	-0.026398	-0.27145	-0.003357	0.003204	-0.042572	-0.000916	0.001221	0.052795	0.024109	0.00885	0.001373	-0.015106	-0.049133	-0.040894	-0.005798	0.001221	0.14557	-0.66971	0.051117	0.099487	0.015869	0.26749	-0.085907	0.061493	-0.012665	0.081329	-0.000153	0.11765	0.18829	-0.001678	-0.003357
7.524	0.009766	-0.067902	-0.17914	-0.008392	0.030212	-0.050507	-0.015717	-0.000458	0.069885	0.003357	0.019379	0.003662	0.000763	-0.056	-0.037231	0.003052	-0.009003	0.18814	-0.36575	0.029602	0.12573	-0.001678	0.12024	-0.062408	-0.002594	-0.006409	-0.41184	0.002289	0.11337	0.11215	-0.00351	0.006561
7.525	0.01297	-0.074768	0.11734	-0.006104	0.042572	-0.035095	0.00946	-0.004425	0.06958	-0.02182	0.014954	0.008545	-0.025482	-0.059204	-0.030975	-0.010071	-0.001526	0.14786	-0.19363	0.022736	0.091248	-0.005951	-0.013275	-0.103	-0.10635	-0.011292	-0.59067	0.001984	0.11566	0.08728	-0.004272	-0.000763
7.526	0.007019	-0.084991	0.17563	0.020142	0.019226	-0.008545	-0.00412	-0.004425	0.074158	-0.041199	0.012054	0.004883	-0.030975	-0.051117	-0.037689	0.002136	-0.016479	0.13901	0.00351	0.00351	0.065765	0.036011	-0.28503	0.064087	0.011139	-0.018158	-0.32272	0.006866	0.072479	0.17822	-0.001678	-0.005646
7.527	0.009308	-0.09491	0.11231	0.025482	-0.009155	0.002289	-0.002136	0.002136	0.063934	-0.049286	-0.005341	0.00824	-0.024872	-0.06012	-0.020752	0.000305	0.003662	0.12787	0.26901	-0.038147	0.058289	0.032654	-0.35461	0.14358	0.065918	-0.013885	-0.042572	0.002289	-0.063171	0.15015	0.000916	-0.010529
